<?xml version="1.0" encoding="iso-8859-1"?>
<!-- Generator: Adobe Illustrator 19.0.0, SVG Export Plug-In . SVG Version: 6.00 Build 0)  -->
<svg version="1.1" id="Layer_1" xmlns="http://www.w3.org/2000/svg" xmlns:xlink="http://www.w3.org/1999/xlink" x="0px" y="0px"
	 viewBox="0 0 512 512" style="enable-background:new 0 0 512 512;" xml:space="preserve">
<path style="fill:#C1F4D3;" d="M445.217,489.739H66.783c-24.588,0-44.522-19.934-44.522-44.522V66.783
	c0-24.588,19.933-44.522,44.522-44.522h378.435c24.588,0,44.522,19.933,44.522,44.522v378.435
	C489.739,469.806,469.806,489.739,445.217,489.739z"/>
<path style="fill:#8DC9BD;" d="M408.611,422.934c-37.48,25.973-82.967,41.205-132.019,41.205
	c-126.937,0-230.071-101.915-232.041-228.382C42.55,107.338,146.351,0.986,274.783,0.007
	c56.237-0.429,107.884,19.151,148.257,52.043c16.627,13.546,7.064,40.577-14.381,40.342c-0.613-0.007-1.227-0.01-1.841-0.01
	c-91.219,0-165.183,73.874-165.288,165.093c-0.106,91.375,73.936,165.482,165.287,165.482
	C407.416,422.957,408.012,422.94,408.611,422.934z"/>
<path style="fill:#76B5A9;" d="M319.304,66.789c36.301-0.277,70.684,7.795,101.362,22.39c-3.364,2.054-7.41,3.263-12.006,3.213
	c-0.613-0.007-1.227-0.01-1.841-0.01c-91.22-0.001-165.183,73.873-165.288,165.092c-0.056,48.54,20.812,92.207,54.083,122.48
	c10.32,28.951,28.482,54.176,51.932,73.123c-22.364,7.179-46.205,11.061-70.954,11.061c-66.123,0-125.776-27.665-168.046-72.037
	c-12.072-27.479-18.977-57.742-19.473-89.562C87.071,174.12,190.873,67.768,319.304,66.789z"/>
<path style="fill:#DCFFE8;" d="M443.776,90.737c-1.56,3.242-4.487,5.384-7.756,6.068c-2.316,0.485-4.804,0.238-7.101-0.868
	c-48.925-23.554-102.953-30.108-156.245-18.948c-6.017,1.26-11.915-2.597-13.175-8.613c-1.26-6.017,2.597-11.915,8.613-13.175
	c58.135-12.172,117.08-5.021,170.464,20.68C444.114,78.547,446.443,85.198,443.776,90.737z M496.99,114.067
	c-1.191-1.023-2.391-2.035-3.6-3.035c-4.734-3.92-11.75-3.261-15.672,1.473s-3.261,11.752,1.473,15.672
	c1.107,0.917,2.207,1.844,3.298,2.78c2.73,2.344,6.271,3.132,9.54,2.448c2.315-0.485,4.496-1.71,6.156-3.643
	C502.189,125.099,501.653,118.071,496.99,114.067z M326.954,147.87c-21.399,16.15-37.889,37.91-47.686,62.931
	c-10.055,25.681-12.526,53.605-7.145,80.752c1.195,6.029,7.052,9.948,13.083,8.754c0.04-0.008,0.079-0.016,0.119-0.025
	c5.961-1.248,9.822-7.068,8.634-13.058c-9.068-45.744,9.147-93.469,46.405-121.586c4.906-3.703,5.882-10.682,2.179-15.589
	C338.841,145.143,331.861,144.168,326.954,147.87z M384.406,121.824c-1.054,0.22-2.103,0.453-3.147,0.695
	c-5.987,1.391-9.712,7.374-8.321,13.361c1.372,5.907,7.211,9.612,13.117,8.376c0.081-0.017,0.162-0.036,0.244-0.053
	c0.885-0.206,1.774-0.402,2.67-0.59c6.017-1.26,9.873-7.158,8.613-13.175C396.324,124.42,390.423,120.564,384.406,121.824z"/>
<path style="fill:#00AAAA;" d="M500.87,463.23H11.131V241.484c0-108.619,68.178-201.365,164.23-238.118
	c9.761-3.735,19.844,4.71,17.972,14.993c-2.7,14.836-4.115,30.117-4.115,45.728c0,140.837,114.615,255.007,256,255.007
	c19.115,0,37.734-2.107,55.652-6.071V463.23z"/>
<path style="fill:#009299;" d="M297.495,434.087H500.87v29.143H11.131V241.484c0-108.619,68.178-201.365,164.23-238.118
	c9.411-3.601,19.118,4.12,18.124,13.894c0.092-0.909,0.096-1.803,0.011-2.669C126.989,58.77,83.17,134.16,83.17,219.762l0,0
	C83.171,338.131,179.128,434.087,297.495,434.087z"/>
<path style="fill:#A5DDD3;" d="M512,406.158v61.321C512,492.067,492.067,512,467.478,512H44.522C19.934,512,0,492.067,0,467.478
	v-61.321c16.296,17.7,39.225,27.93,63.791,27.93c24.703,0,47.758-10.339,64.07-28.226c16.311,17.887,39.366,28.226,64.069,28.226
	s47.758-10.339,64.07-28.226c16.312,17.887,39.367,28.226,64.07,28.226c24.703,0,47.758-10.339,64.07-28.226
	c16.312,17.887,39.367,28.226,64.07,28.226C472.776,434.087,495.705,423.857,512,406.158z"/>
<path style="fill:#00AAAA;" d="M512,434.383v33.095C512,492.067,492.067,512,467.478,512H44.522C19.934,512,0,492.067,0,467.478
	v-33.095c16.296,17.7,39.225,27.93,63.791,27.93c24.703,0,47.758-10.339,64.07-28.226c16.312,17.887,39.367,28.226,64.07,28.226
	s47.758-10.339,64.07-28.226c16.312,17.887,39.367,28.226,64.07,28.226s47.758-10.339,64.07-28.226
	c16.312,17.887,39.367,28.226,64.07,28.226C472.776,462.313,495.705,452.083,512,434.383z"/>
<g>
</g>
<g>
</g>
<g>
</g>
<g>
</g>
<g>
</g>
<g>
</g>
<g>
</g>
<g>
</g>
<g>
</g>
<g>
</g>
<g>
</g>
<g>
</g>
<g>
</g>
<g>
</g>
<g>
</g>
</svg>
